Coordinates
version=1
nRows=8
nColumns=40
inDegrees=yes
endheader
time	pelvis_tilt	pelvis_list	pelvis_rotation	pelvis_tx	pelvis_ty	pelvis_tz	hip_flexion_r	hip_adduction_r	hip_rotation_r	knee_angle_r	knee_angle_r_beta	ankle_angle_r	subtalar_angle_r	mtp_angle_r	hip_flexion_l	hip_adduction_l	hip_rotation_l	knee_angle_l	knee_angle_l_beta	ankle_angle_l	subtalar_angle_l	mtp_angle_l	lumbar_extension	lumbar_bending	lumbar_rotation	arm_flex_r	arm_add_r	arm_rot_r	elbow_flex_r	pro_sup_r	wrist_flex_r	wrist_dev_r	arm_flex_l	arm_add_l	arm_rot_l	elbow_flex_l	pro_sup_l	wrist_flex_l	wrist_dev_l
1760624573.60400009	      0.38760817	     -0.31208291	      2.17825174	     -0.02261669	      0.95218420	     -0.01107982	     80.00000000	     -7.00000000	      0.00000000	     80.00000000	      1.39626340	      0.00000000	      0.00000000	      0.00000000	     80.00000000	     -7.00000000	      0.00000000	     80.00000000	      1.39626340	      0.00000000	      0.00000000	      0.00000000	     -6.56250774	     -1.53689433	     -9.29853247	      7.14869196	      2.15212901	     10.24787888	      0.51707280	      0.00000000	      0.39768276	     -0.05980671	      7.40339453	     -5.75154227	    -23.96327680	      0.00000000	     15.24182204	      0.32225009	      3.66397656
1760624573.63800001	      0.39401207	     -0.31425593	      2.20053888	     -0.02265812	      0.95226725	     -0.01128219	     80.00000000	     -7.00000000	      0.00000000	     80.00000000	      1.39626340	      0.00000000	      0.00000000	      0.00000000	     80.00000000	     -7.00000000	      0.00000000	     80.00000000	      1.39626340	      0.00000000	      0.00000000	      0.00000000	     -6.64092441	     -1.57597427	     -9.45234646	      7.21366468	      2.24024245	     10.40529203	      0.50749300	      0.00000000	      0.36454901	     -0.06601668	      7.44442050	     -5.78837875	    -23.94386795	      0.00000000	     15.18010838	      0.31084137	      3.67470243
1760624573.67100000	      0.39648607	     -0.32402023	      2.21900596	     -0.02263874	      0.95214651	     -0.01144840	     80.00000000	     -7.00000000	      0.00000000	     80.00000000	      1.39626340	      0.00000000	      0.00000000	      0.00000000	     80.00000000	     -7.00000000	      0.00000000	     80.00000000	      1.39626340	      0.00000000	      0.00000000	      0.00000000	     -6.63417584	     -1.58781589	     -9.42932980	      7.19845529	      2.27308142	     10.40755949	      0.52060555	      0.00000000	      0.37290816	     -0.06319176	      7.46776081	     -5.75179590	    -23.96771585	      0.00000000	     15.15751151	      0.31605585	      3.69907884
1760624573.70499992	      0.38488832	     -0.33345083	      2.22249943	     -0.02315088	      0.95184721	     -0.01164072	     80.00000000	     -7.00000000	      0.00000000	     80.00000000	      1.39626340	      0.00000000	      0.00000000	      0.00000000	     80.00000000	     -7.00000000	      0.00000000	     80.00000000	      1.39626340	      0.00000000	      0.00000000	      0.00000000	     -6.62921752	     -1.59937284	     -9.40135226	      7.17240269	      2.32174042	     10.42450019	      0.59838708	      0.00000000	      0.39415496	     -0.07879367	      7.47665478	     -5.70810688	    -23.96500946	      0.00000000	     15.16066267	      0.29412766	      3.69353862
1760624573.73799992	      0.38471707	     -0.33606989	      2.21851167	     -0.02294658	      0.95183082	     -0.01174152	     80.00000000	     -7.00000000	      0.00000000	     80.00000000	      1.39626340	      0.00000000	      0.00000000	      0.00000000	     80.00000000	     -7.00000000	      0.00000000	     80.00000000	      1.39626340	      0.00000000	      0.00000000	      0.00000000	     -6.62948367	     -1.60667560	     -9.39042286	      7.14584751	      2.37879462	     10.50293373	      0.64487949	      0.00000000	      0.39012362	     -0.08924618	      7.50705025	     -5.66172024	    -23.90938861	      0.00000000	     15.21355193	      0.26290015	      3.69100538
1760624573.77200007	      0.38085393	     -0.34073662	      2.22457573	     -0.02249447	      0.95197417	     -0.01166386	     80.00000000	     -7.00000000	      0.00000000	     80.00000000	      1.39626340	      0.00000000	      0.00000000	      0.00000000	     80.00000000	     -7.00000000	      0.00000000	     80.00000000	      1.39626340	      0.00000000	      0.00000000	      0.00000000	     -6.65208572	     -1.61635041	     -9.41580942	      7.13877410	      2.44240018	     10.58909203	      0.70600761	      0.00000000	      0.40577178	     -0.11185974	      7.49255992	     -5.61661338	    -23.79569102	      0.00000000	     15.32312122	      0.25370183	      3.70615144
1760624573.80500007	      0.36073636	     -0.34618528	      2.22730624	     -0.02214359	      0.95205651	     -0.01137326	     80.00000000	     -7.00000000	      0.00000000	     80.00000000	      1.39626340	      0.00000000	      0.00000000	      0.00000000	     80.00000000	     -7.00000000	      0.00000000	     80.00000000	      1.39626340	      0.00000000	      0.00000000	      0.00000000	     -6.65395990	     -1.64359840	     -9.39756322	      7.10969603	      2.52477171	     10.66074752	      0.78643920	      0.00000000	      0.39399565	     -0.09714598	      7.52982552	     -5.54159198	    -23.76021901	      0.00000000	     15.35275106	      0.21715556	      3.74099351
1760624573.83899999	      0.35201910	     -0.35064000	      2.22501643	     -0.02178887	      0.95205377	     -0.01108875	     80.00000000	     -7.00000000	      0.00000000	     80.00000000	      1.39626340	      0.00000000	      0.00000000	      0.00000000	     80.00000000	     -7.00000000	      0.00000000	     80.00000000	      1.39626340	      0.00000000	      0.00000000	      0.00000000	     -6.67221312	     -1.65900563	     -9.36868136	      7.09787150	      2.58339890	     10.78326397	      0.79367075	      0.00000000	      0.38873942	     -0.09220738	      7.52881351	     -5.49187109	    -23.68559306	      0.00000000	     15.41554381	      0.17672536	      3.69467433
